<svg width="24" height="25" viewBox="0 0 24 25" fill="none" xmlns="http://www.w3.org/2000/svg">
<g clip-path="url(#clip0_1708_137)">
<path d="M12 2.14728C14.717 2.14728 15.056 2.15728 16.122 2.20728C17.187 2.25728 17.912 2.42428 18.55 2.67228C19.21 2.92628 19.766 3.27028 20.322 3.82528C20.8305 4.32517 21.224 4.92987 21.475 5.59728C21.722 6.23428 21.89 6.96028 21.94 8.02528C21.987 9.09128 22 9.43028 22 12.1473C22 14.8643 21.99 15.2033 21.94 16.2693C21.89 17.3343 21.722 18.0593 21.475 18.6973C21.2247 19.3651 20.8311 19.9699 20.322 20.4693C19.822 20.9776 19.2173 21.371 18.55 21.6223C17.913 21.8693 17.187 22.0373 16.122 22.0873C15.056 22.1343 14.717 22.1473 12 22.1473C9.283 22.1473 8.944 22.1373 7.878 22.0873C6.813 22.0373 6.088 21.8693 5.45 21.6223C4.78233 21.3717 4.17753 20.9782 3.678 20.4693C3.16941 19.9695 2.77593 19.3647 2.525 18.6973C2.277 18.0603 2.11 17.3343 2.06 16.2693C2.013 15.2033 2 14.8643 2 12.1473C2 9.43028 2.01 9.09128 2.06 8.02528C2.11 6.95928 2.277 6.23528 2.525 5.59728C2.77524 4.92946 3.1688 4.3246 3.678 3.82528C4.17767 3.31651 4.78243 2.92301 5.45 2.67228C6.088 2.42428 6.812 2.25728 7.878 2.20728C8.944 2.16028 9.283 2.14728 12 2.14728ZM12 7.14728C10.6739 7.14728 9.40215 7.67406 8.46446 8.61174C7.52678 9.54942 7 10.8212 7 12.1473C7 13.4734 7.52678 14.7451 8.46446 15.6828C9.40215 16.6205 10.6739 17.1473 12 17.1473C13.3261 17.1473 14.5978 16.6205 15.5355 15.6828C16.4732 14.7451 17 13.4734 17 12.1473C17 10.8212 16.4732 9.54942 15.5355 8.61174C14.5978 7.67406 13.3261 7.14728 12 7.14728V7.14728ZM18.5 6.89728C18.5 6.56576 18.3683 6.24781 18.1339 6.01339C17.8995 5.77897 17.5815 5.64728 17.25 5.64728C16.9185 5.64728 16.6005 5.77897 16.3661 6.01339C16.1317 6.24781 16 6.56576 16 6.89728C16 7.2288 16.1317 7.54674 16.3661 7.78116C16.6005 8.01558 16.9185 8.14728 17.25 8.14728C17.5815 8.14728 17.8995 8.01558 18.1339 7.78116C18.3683 7.54674 18.5 7.2288 18.5 6.89728ZM12 9.14728C12.7956 9.14728 13.5587 9.46335 14.1213 10.026C14.6839 10.5886 15 11.3516 15 12.1473C15 12.9429 14.6839 13.706 14.1213 14.2686C13.5587 14.8312 12.7956 15.1473 12 15.1473C11.2043 15.1473 10.4413 14.8312 9.87868 14.2686C9.31607 13.706 9 12.9429 9 12.1473C9 11.3516 9.31607 10.5886 9.87868 10.026C10.4413 9.46335 11.2043 9.14728 12 9.14728V9.14728Z" fill="white"/>
</g>
<defs>
<clipPath id="clip0_1708_137">
<rect width="24" height="24" fill="white" transform="translate(0 0.147278)"/>
</clipPath>
</defs>
</svg>
