<svg width="71" height="15" viewBox="0 0 71 15" fill="none" xmlns="http://www.w3.org/2000/svg">
<path fill-rule="evenodd" clip-rule="evenodd" d="M7.67115 11.8444C7.42265 11.8403 7.17466 11.8205 6.92868 11.7852C6.18622 11.6638 5.71252 11.2996 5.51057 10.7001C5.41997 10.4496 5.36985 10.1862 5.36208 9.92001V5.44361L5.80013 5.42437C6.73712 5.37848 7.73054 5.31039 8.67347 5.04986L8.07207 3.00558L5.36208 3.40674V0.397308H2.16206V3.40674H0V5.47026H2.16206C2.16206 5.47026 2.16206 9.72609 2.17988 10.8126C2.1817 11.4762 2.37388 12.1254 2.73376 12.6837C3.16438 13.3365 3.78954 13.7451 4.70426 13.9701C5.6863 14.2108 6.68164 14.1996 7.73302 14.1878H7.73303L7.74094 14.1877H7.99337V11.8562H7.87161L7.67115 11.8444ZM14.1246 3.2572C15.6749 2.93006 16.9059 3.16098 18.1785 3.63763C19.6946 4.20607 20.5736 5.44951 20.5722 7.05858V14.164H17.6543V12.1315L16.9549 12.6718C16.9105 12.7064 16.7955 12.8052 16.7146 12.8748C16.6708 12.9124 16.637 12.9415 16.6297 12.9472C15.6388 13.7797 14.3745 14.2183 13.0792 14.1788C12.5492 14.1882 12.025 14.0673 11.5529 13.827C11.0808 13.5867 10.6753 13.2342 10.3722 12.8006C10.0277 12.3254 9.86433 11.7407 9.85542 10.9606C9.83166 8.91042 11.1874 8.26798 12.3278 8.08886C12.6992 8.03059 13.0745 8.00139 13.4504 8.00153C14.5684 8.01864 15.6744 8.23315 16.7173 8.63509L16.7826 8.66025L16.8628 8.69134C16.9634 8.72879 17.0741 8.72879 17.1746 8.69134L17.6825 8.58328C17.6825 8.58328 17.6409 7.24954 17.5785 6.92684C17.4256 6.1482 16.4975 5.61678 15.5293 5.63602C14.6948 5.65231 13.9167 6.36581 13.4712 6.99937C12.9084 6.57897 12.4882 6.21778 12.0828 5.86695C11.8363 5.65231 11.5839 5.43619 11.3032 5.20822C11.9417 3.99734 12.9144 3.51181 14.1246 3.2572ZM14.4661 12.0575C15.6363 12.0575 16.6534 11.4284 17.2771 10.3152L17.6335 9.67573H12.2684L12.2506 10.0887C12.215 11.0332 12.7124 11.7348 13.587 11.9643C13.8266 12.0212 14.0715 12.0525 14.3176 12.0575H14.4661ZM44.6061 3.2572C46.1549 2.93006 47.3859 3.16098 48.6585 3.63763C50.1746 4.20607 51.0537 5.44951 51.0537 7.05858V14.164H48.1358V12.1315L47.4364 12.6718C47.3843 12.7134 47.2281 12.8478 47.1529 12.9126L47.1127 12.9472C46.1213 13.7798 44.8565 14.2184 43.5607 14.1788C43.0307 14.1882 42.5065 14.0674 42.0344 13.827C41.5623 13.5867 41.1568 13.2342 40.8537 12.8006C40.5107 12.3255 40.3459 11.7407 40.337 10.9606C40.3132 8.91042 41.6689 8.26798 42.8094 8.08886C43.1807 8.03059 43.556 8.00139 43.932 8.00153C45.0499 8.01865 46.156 8.23315 47.1988 8.63509L47.2656 8.66026C47.2924 8.6721 47.3206 8.68246 47.3458 8.69134C47.4464 8.72879 47.5571 8.72879 47.6577 8.69134L48.164 8.58328C48.164 8.58328 48.1224 7.24954 48.0601 6.92684C47.9071 6.1482 46.9805 5.61678 46.0109 5.63602C45.1778 5.65231 44.3982 6.36581 43.9528 6.99937C43.391 6.57974 42.9727 6.2191 42.5666 5.86887L42.5644 5.86695C42.3179 5.65231 42.0654 5.43619 41.7848 5.20822C42.4218 3.99734 43.3944 3.51181 44.6061 3.2572ZM44.9477 12.0575C46.1163 12.0575 47.135 11.4284 47.7571 10.3152L48.115 9.67573H42.7514L42.7336 10.0887C42.6965 11.0332 43.194 11.7348 44.0701 11.9643C44.3091 12.0212 44.5535 12.0525 44.7992 12.0575H44.9477ZM68.5932 3.63763C67.3206 3.16098 66.0896 2.93006 64.5394 3.2572C63.3291 3.51181 62.3565 3.99734 61.718 5.20822C61.9986 5.43619 62.2511 5.65231 62.4976 5.86695C62.903 6.21778 63.3232 6.57897 63.886 6.99937C64.3315 6.36581 65.1096 5.65231 65.9441 5.63602C66.9138 5.61678 67.8404 6.1482 67.9933 6.92684C68.0557 7.24954 68.0973 8.58328 68.0973 8.58328L67.5894 8.69134C67.4893 8.72843 67.3792 8.72843 67.2791 8.69134C67.2538 8.68246 67.2256 8.6721 67.1989 8.66026L67.132 8.63509C66.0892 8.23315 64.9832 8.01865 63.8652 8.00153C63.4893 8.00139 63.1139 8.03059 62.7426 8.08886C61.6022 8.26798 60.2464 8.91042 60.2702 10.9606C60.2791 11.7407 60.4424 12.3255 60.7869 12.8006C61.0901 13.2342 61.4956 13.5867 61.9677 13.827C62.4398 14.0674 62.964 14.1882 63.494 14.1788C64.7897 14.2184 66.0545 13.7798 67.0459 12.9472L67.0861 12.9126C67.1614 12.8478 67.3175 12.7134 67.3696 12.6718L68.069 12.1315V14.164H70.9869V7.05858C70.9884 5.44951 70.1093 4.20607 68.5932 3.63763ZM67.6919 10.3152C67.0682 11.4284 66.051 12.0575 64.8809 12.0575H64.7324C64.4862 12.0525 64.2413 12.0212 64.0018 11.9643C63.1272 11.7348 62.6297 11.0332 62.6654 10.0887L62.6832 9.67573H68.0453L67.6919 10.3152ZM56.984 5.28233C57.4295 4.47261 58.1022 4.06109 59.0466 4.01816C59.2604 4.0078 59.4772 4.00928 59.7133 4.01224V6.78186L59.667 6.78233C59.4393 6.78448 58.5777 6.79259 58.2165 6.84403C57.6141 6.9167 57.0559 7.19655 56.6382 7.63537C56.2205 8.07418 55.9694 8.64449 55.9282 9.24802C55.9133 9.47879 55.9184 9.70957 55.9233 9.93679V9.93688V9.93697C55.9258 10.0493 55.9282 10.1607 55.9282 10.2709V10.45V13.2759V14.1863H53.0994V4.16175H55.9208V5.48216V5.82559L56.6202 5.98694C56.6202 5.98694 56.935 5.37114 56.984 5.28233ZM33.7851 6.64121C32.857 6.72706 32.1739 7.52642 32.1739 8.53894V14.1788H29.216V8.64108C29.2411 8.17928 29.1144 7.72191 28.8551 7.33842C28.4171 6.74483 27.581 6.48726 26.7762 6.6945C26.4324 6.7793 26.1235 6.96838 25.8921 7.23565C25.6607 7.50292 25.5182 7.8352 25.4843 8.18663C25.4604 8.37269 25.4485 8.56008 25.4487 8.74766V14.1862H22.5085V4.16024H25.4606V6.41176L25.8853 5.67162C26.8326 4.01518 28.674 3.72948 29.8946 4.06995C31.0291 4.39413 31.7403 5.29266 31.9898 6.53315L32.4234 5.66866C33.3738 4.01221 35.42 3.7576 36.6406 4.09807C37.7677 4.41781 38.4359 5.17572 38.6705 6.41916C38.7269 6.74073 38.7537 7.06676 38.7507 7.39319V12.6201V14.1729H35.9293V13.1752V8.68401C35.9346 8.4992 35.9221 8.31431 35.8922 8.13186C35.6917 7.09418 34.9047 6.53611 33.7851 6.64121Z" fill="white"/>
</svg>
