<svg width="24" height="25" viewBox="0 0 24 25" fill="none" xmlns="http://www.w3.org/2000/svg">
<g clip-path="url(#clip0_1708_143)">
<path d="M18.9995 10.7086C17.6233 10.7119 16.281 10.2828 15.162 9.48175V15.0682C15.1616 16.1028 14.8453 17.1127 14.2555 17.9628C13.6657 18.8129 12.8304 19.4626 11.8613 19.8252C10.8922 20.1877 9.83557 20.2457 8.83262 19.9915C7.82967 19.7373 6.92823 19.183 6.24884 18.4026C5.56945 17.6223 5.14449 16.6531 5.03078 15.6247C4.91707 14.5963 5.12004 13.5577 5.61254 12.6478C6.10504 11.7378 6.8636 10.9999 7.78679 10.5328C8.70998 10.0656 9.75379 9.89138 10.7787 10.0335V12.8432C10.3097 12.6957 9.80608 12.7002 9.33977 12.8559C8.87347 13.0117 8.46831 13.3108 8.18215 13.7106C7.89599 14.1104 7.74347 14.5903 7.74637 15.082C7.74926 15.5736 7.90743 16.0517 8.19827 16.4481C8.48912 16.8445 8.89778 17.1388 9.36588 17.2891C9.83399 17.4393 10.3376 17.4378 10.8048 17.2848C11.272 17.1318 11.6789 16.835 11.9674 16.437C12.2559 16.0389 12.4113 15.5598 12.4113 15.0682V4.14728H15.162C15.16 4.37957 15.1795 4.61154 15.2201 4.84027C15.3157 5.35086 15.5144 5.83658 15.8042 6.26773C16.0939 6.69888 16.4686 7.06639 16.9052 7.34778C17.5264 7.75853 18.2548 7.97747 18.9995 7.97731V10.7086Z" fill="white"/>
</g>
<defs>
<clipPath id="clip0_1708_143">
<rect width="24" height="24" fill="white" transform="translate(0 0.147278)"/>
</clipPath>
</defs>
</svg>
