<svg width="24" height="25" viewBox="0 0 24 25" fill="none" xmlns="http://www.w3.org/2000/svg">
<g clip-path="url(#clip0_1799_378)">
<path d="M19.8743 11.1188C18.4122 11.1223 16.9859 10.6663 15.797 9.81529V15.7508C15.7966 16.8501 15.4606 17.9231 14.8339 18.8263C14.2072 19.7295 13.3197 20.4199 12.2901 20.8051C11.2604 21.1903 10.1378 21.2519 9.07213 20.9818C8.0065 20.7117 7.04873 20.1228 6.32688 19.2936C5.60503 18.4645 5.15352 17.4348 5.0327 16.3421C4.91189 15.2494 5.12754 14.1459 5.65082 13.1791C6.1741 12.2124 6.98006 11.4284 7.96094 10.932C8.94182 10.4356 10.0509 10.2505 11.1398 10.4015V13.3868C10.6415 13.2301 10.1064 13.2348 9.61097 13.4003C9.11552 13.5658 8.68504 13.8836 8.381 14.3084C8.07696 14.7332 7.91491 15.2431 7.91799 15.7655C7.92106 16.2878 8.08911 16.7958 8.39814 17.217C8.70716 17.6381 9.14135 17.9508 9.63871 18.1105C10.1361 18.2702 10.6712 18.2686 11.1676 18.106C11.664 17.9434 12.0963 17.6281 12.4028 17.2051C12.7094 16.7822 12.8744 16.2732 12.8744 15.7508V4.14746H15.797C15.795 4.39427 15.8156 4.64074 15.8588 4.88375V4.88375C15.9603 5.42625 16.1715 5.94233 16.4793 6.40042C16.7872 6.85852 17.1852 7.24899 17.6492 7.54796C18.3092 7.98439 19.0831 8.217 19.8743 8.21684V11.1188Z" fill="white"/>
</g>
<defs>
<clipPath id="clip0_1799_378">
<rect width="24" height="24" fill="white" transform="translate(0 0.147461)"/>
</clipPath>
</defs>
</svg>
