<svg width="24" height="25" viewBox="0 0 24 25" fill="none" xmlns="http://www.w3.org/2000/svg">
<g clip-path="url(#clip0_1708_140)">
<path d="M22.1623 5.80418C21.3989 6.14187 20.5893 6.36365 19.7603 6.46218C20.6341 5.93961 21.288 5.11719 21.6003 4.14818C20.7803 4.63618 19.8813 4.97818 18.9443 5.16318C18.3149 4.48976 17.4807 4.04314 16.5713 3.89277C15.6619 3.74239 14.7282 3.89667 13.9156 4.33163C13.1029 4.7666 12.4567 5.45786 12.0774 6.29797C11.6981 7.13808 11.6071 8.07996 11.8183 8.97718C10.1554 8.89383 8.52863 8.4617 7.04359 7.70884C5.55854 6.95599 4.24843 5.89923 3.1983 4.60718C2.82659 5.24563 2.63125 5.97141 2.6323 6.71018C2.6323 8.16018 3.3703 9.44118 4.4923 10.1912C3.82831 10.1703 3.17893 9.99096 2.5983 9.66818V9.72018C2.5985 10.6859 2.93267 11.6218 3.54415 12.3692C4.15562 13.1167 5.00678 13.6297 5.9533 13.8212C5.33691 13.9882 4.69061 14.0128 4.0633 13.8932C4.33017 14.7244 4.85031 15.4514 5.55089 15.9723C6.25148 16.4932 7.09743 16.782 7.9703 16.7982C7.10278 17.4795 6.10948 17.9832 5.04718 18.2803C3.98488 18.5775 2.87442 18.6624 1.7793 18.5302C3.691 19.7596 5.9164 20.4123 8.1893 20.4102C15.8823 20.4102 20.0893 14.0372 20.0893 8.51018C20.0893 8.33018 20.0843 8.14818 20.0763 7.97018C20.8952 7.37835 21.6019 6.6452 22.1633 5.80518L22.1623 5.80418Z" fill="white"/>
</g>
<defs>
<clipPath id="clip0_1708_140">
<rect width="24" height="24" fill="white" transform="translate(0 0.147278)"/>
</clipPath>
</defs>
</svg>
